<svg width="50" height="50" viewBox="0 0 50 50" fill="none" xmlns="http://www.w3.org/2000/svg">
<circle cx="25" cy="25" r="24.5" stroke="url(#paint0_linear)" stroke-opacity="0.92"/>
<path d="M29.7338 15C30.2571 15.0031 30.7738 15.1167 31.2502 15.3333C31.7655 15.5604 32.2044 15.931 32.5147 16.4009C32.825 16.8707 32.9934 17.4199 33 17.983L33 32.0144C32.9934 32.5775 32.825 33.1267 32.5147 33.5965C32.2044 34.0664 31.7655 34.437 31.2502 34.6641C30.6574 34.9441 29.9978 35.052 29.3467 34.9754C28.6956 34.8988 28.079 34.6408 27.5674 34.2308L19.0685 27.2151C18.7352 26.9497 18.4661 26.6127 18.2811 26.2289C18.0961 25.8452 18 25.4247 18 24.9987C18 24.5727 18.0961 24.1522 18.2811 23.7685C18.4661 23.3847 18.7352 23.0476 19.0685 22.7823L27.5674 15.7666C28.18 15.2698 28.945 14.9991 29.7338 15Z" fill="#736862"/>
<defs>
<linearGradient id="paint0_linear" x1="5.35714" y1="45.5357" x2="50" y2="3.86905" gradientUnits="userSpaceOnUse">
<stop stop-color="#B88F8F"/>
<stop offset="1" stop-color="#796F69" stop-opacity="0"/>
</linearGradient>
</defs>
</svg>
