<svg width="50" height="50" viewBox="0 0 50 50" fill="none" xmlns="http://www.w3.org/2000/svg">
<circle cx="25" cy="25" r="24.5" stroke="url(#paint0_linear)" stroke-opacity="0.92"/>
<path d="M21.2662 34.9993C20.7429 34.9962 20.2262 34.8827 19.7498 34.666C19.2345 34.4389 18.7956 34.0683 18.4853 33.5985C18.175 33.1286 18.0066 32.5794 18 32.0164V17.9849C18.0066 17.4219 18.175 16.8726 18.4853 16.4028C18.7956 15.9329 19.2345 15.5623 19.7498 15.3352C20.3426 15.0552 21.0022 14.9474 21.6533 15.024C22.3044 15.1006 22.921 15.3586 23.4326 15.7685L31.9315 22.7843C32.2648 23.0496 32.5339 23.3867 32.7189 23.7704C32.9039 24.1541 33 24.5746 33 25.0006C33 25.4266 32.9039 25.8471 32.7189 26.2309C32.5339 26.6146 32.2648 26.9517 31.9315 27.217L23.4326 34.2328C22.82 34.7296 22.055 35.0003 21.2662 34.9993Z" fill="#736862"/>
<defs>
<linearGradient id="paint0_linear" x1="5.35714" y1="45.5357" x2="50" y2="3.86905" gradientUnits="userSpaceOnUse">
<stop stop-color="#B88F8F"/>
<stop offset="1" stop-color="#796F69" stop-opacity="0"/>
</linearGradient>
</defs>
</svg>
