<svg width="21" height="17" viewBox="0 0 21 17" fill="none" xmlns="http://www.w3.org/2000/svg">
<path fill-rule="evenodd" clip-rule="evenodd" d="M6.00095 15.2501C6.00095 15.0512 6.07997 14.8604 6.22062 14.7198C6.36127 14.5791 6.55203 14.5001 6.75095 14.5001H20.2509C20.4499 14.5001 20.6406 14.5791 20.7813 14.7198C20.9219 14.8604 21.0009 15.0512 21.0009 15.2501C21.0009 15.449 20.9219 15.6398 20.7813 15.7805C20.6406 15.9211 20.4499 16.0001 20.2509 16.0001H6.75095C6.55203 16.0001 6.36127 15.9211 6.22062 15.7805C6.07997 15.6398 6.00095 15.449 6.00095 15.2501ZM6.00095 9.25012C6.00095 9.05121 6.07997 8.86044 6.22062 8.71979C6.36127 8.57914 6.55203 8.50012 6.75095 8.50012H20.2509C20.4499 8.50012 20.6406 8.57914 20.7813 8.71979C20.9219 8.86044 21.0009 9.05121 21.0009 9.25012C21.0009 9.44903 20.9219 9.6398 20.7813 9.78045C20.6406 9.9211 20.4499 10.0001 20.2509 10.0001H6.75095C6.55203 10.0001 6.36127 9.9211 6.22062 9.78045C6.07997 9.6398 6.00095 9.44903 6.00095 9.25012ZM6.00095 3.25012C6.00095 3.05121 6.07997 2.86044 6.22062 2.71979C6.36127 2.57914 6.55203 2.50012 6.75095 2.50012H20.2509C20.4499 2.50012 20.6406 2.57914 20.7813 2.71979C20.9219 2.86044 21.0009 3.05121 21.0009 3.25012C21.0009 3.44903 20.9219 3.6398 20.7813 3.78045C20.6406 3.9211 20.4499 4.00012 20.2509 4.00012H6.75095C6.55203 4.00012 6.36127 3.9211 6.22062 3.78045C6.07997 3.6398 6.00095 3.44903 6.00095 3.25012ZM4.28195 1.21912C4.35179 1.28879 4.40721 1.37155 4.44502 1.46267C4.48283 1.55379 4.50229 1.65147 4.50229 1.75012C4.50229 1.84877 4.48283 1.94645 4.44502 2.03757C4.40721 2.12869 4.35179 2.21145 4.28195 2.28112L2.03195 4.53112C1.96228 4.60097 1.87952 4.65638 1.7884 4.69419C1.69728 4.732 1.5996 4.75146 1.50095 4.75146C1.4023 4.75146 1.30461 4.732 1.2135 4.69419C1.12238 4.65638 1.03962 4.60097 0.969947 4.53112L0.219947 3.78112C0.150216 3.71139 0.0949011 3.6286 0.0571624 3.5375C0.0194238 3.44639 1.03909e-09 3.34874 0 3.25012C-1.03909e-09 3.1515 0.0194238 3.05385 0.0571624 2.96274C0.0949011 2.87164 0.150216 2.78885 0.219947 2.71912C0.289679 2.64939 0.372463 2.59407 0.463572 2.55634C0.554681 2.5186 0.652332 2.49917 0.750947 2.49917C0.849563 2.49917 0.947213 2.5186 1.03832 2.55634C1.12943 2.59407 1.21222 2.64939 1.28195 2.71912L1.50095 2.93962L3.21995 1.21912C3.28962 1.14928 3.37238 1.09386 3.4635 1.05605C3.55461 1.01824 3.6523 0.998779 3.75095 0.998779C3.8496 0.998779 3.94728 1.01824 4.0384 1.05605C4.12952 1.09386 4.21228 1.14928 4.28195 1.21912ZM4.28195 7.21912C4.35179 7.28879 4.40721 7.37155 4.44502 7.46267C4.48283 7.55379 4.50229 7.65147 4.50229 7.75012C4.50229 7.84877 4.48283 7.94645 4.44502 8.03757C4.40721 8.12869 4.35179 8.21145 4.28195 8.28112L2.03195 10.5311C1.96228 10.601 1.87952 10.6564 1.7884 10.6942C1.69728 10.732 1.5996 10.7515 1.50095 10.7515C1.4023 10.7515 1.30461 10.732 1.2135 10.6942C1.12238 10.6564 1.03962 10.601 0.969947 10.5311L0.219947 9.78112C0.0791175 9.64029 0 9.44928 0 9.25012C0 9.05096 0.0791175 8.85995 0.219947 8.71912C0.360777 8.57829 0.551784 8.49917 0.750947 8.49917C0.950111 8.49917 1.14112 8.57829 1.28195 8.71912L1.50095 8.93962L3.21995 7.21912C3.28962 7.14927 3.37238 7.09386 3.4635 7.05605C3.55461 7.01824 3.6523 6.99878 3.75095 6.99878C3.8496 6.99878 3.94728 7.01824 4.0384 7.05605C4.12952 7.09386 4.21228 7.14927 4.28195 7.21912ZM4.28195 13.2191C4.35179 13.2888 4.40721 13.3716 4.44502 13.4627C4.48283 13.5538 4.50229 13.6515 4.50229 13.7501C4.50229 13.8488 4.48283 13.9465 4.44502 14.0376C4.40721 14.1287 4.35179 14.2115 4.28195 14.2811L2.03195 16.5311C1.96228 16.601 1.87952 16.6564 1.7884 16.6942C1.69728 16.732 1.5996 16.7515 1.50095 16.7515C1.4023 16.7515 1.30461 16.732 1.2135 16.6942C1.12238 16.6564 1.03962 16.601 0.969947 16.5311L0.219947 15.7811C0.0791175 15.6403 0 15.4493 0 15.2501C0 15.051 0.0791175 14.8599 0.219947 14.7191C0.360777 14.5783 0.551784 14.4992 0.750947 14.4992C0.950111 14.4992 1.14112 14.5783 1.28195 14.7191L1.50095 14.9396L3.21995 13.2191C3.28962 13.1493 3.37238 13.0939 3.4635 13.0561C3.55461 13.0182 3.6523 12.9988 3.75095 12.9988C3.8496 12.9988 3.94728 13.0182 4.0384 13.0561C4.12952 13.0939 4.21228 13.1493 4.28195 13.2191Z" fill="#736862"/>
</svg>
