<svg width="39" height="39" viewBox="0 0 39 39" fill="none" xmlns="http://www.w3.org/2000/svg">
<path d="M2 2H5.88889L6.66667 5.88889L2 2ZM9.77778 21.4444H29.2222L37 5.88889H6.66667L9.77778 21.4444ZM9.77778 21.4444L6.66667 5.88889L9.77778 21.4444ZM9.77778 21.4444L5.31917 25.9031C4.09417 27.1281 4.96139 29.2222 6.69389 29.2222H29.2222L9.77778 21.4444ZM29.2222 29.2222C28.1908 29.2222 27.2017 29.6319 26.4724 30.3613C25.7431 31.0906 25.3333 32.0797 25.3333 33.1111C25.3333 34.1425 25.7431 35.1317 26.4724 35.861C27.2017 36.5903 28.1908 37 29.2222 37C30.2536 37 31.2428 36.5903 31.9721 35.861C32.7014 35.1317 33.1111 34.1425 33.1111 33.1111C33.1111 32.0797 32.7014 31.0906 31.9721 30.3613C31.2428 29.6319 30.2536 29.2222 29.2222 29.2222ZM13.6667 33.1111C13.6667 34.1425 13.2569 35.1317 12.5276 35.861C11.7983 36.5903 10.8092 37 9.77778 37C8.74638 37 7.75723 36.5903 7.02792 35.861C6.29861 35.1317 5.88889 34.1425 5.88889 33.1111C5.88889 32.0797 6.29861 31.0906 7.02792 30.3613C7.75723 29.6319 8.74638 29.2222 9.77778 29.2222C10.8092 29.2222 11.7983 29.6319 12.5276 30.3613C13.2569 31.0906 13.6667 32.0797 13.6667 33.1111V33.1111Z" stroke="#736862" stroke-width="3" stroke-linecap="round" stroke-linejoin="round"/>
<circle cx="28" cy="20" r="8" fill="#B88F8F"/>
<path d="M28.27 19.58C28.7167 19.58 29.1067 19.6733 29.44 19.86C29.78 20.0467 30.04 20.31 30.22 20.65C30.4067 20.9833 30.5 21.37 30.5 21.81C30.5 22.25 30.4 22.6433 30.2 22.99C30 23.33 29.72 23.5967 29.36 23.79C29.0067 23.9767 28.5967 24.07 28.13 24.07C27.7167 24.07 27.3133 23.9967 26.92 23.85C26.5267 23.7033 26.1933 23.5033 25.92 23.25C25.8133 23.15 25.76 23.0367 25.76 22.91C25.76 22.81 25.7867 22.7267 25.84 22.66C25.8933 22.5933 25.9567 22.56 26.03 22.56C26.1233 22.56 26.2167 22.5967 26.31 22.67C26.6033 22.91 26.8967 23.09 27.19 23.21C27.4833 23.3233 27.79 23.38 28.11 23.38C28.6033 23.38 28.99 23.24 29.27 22.96C29.55 22.68 29.69 22.3 29.69 21.82C29.69 21.3533 29.55 20.9767 29.27 20.69C28.99 20.4033 28.6133 20.26 28.14 20.26C27.5333 20.26 27.04 20.4933 26.66 20.96C26.5667 21.06 26.4533 21.11 26.32 21.11C26.2267 21.11 26.1467 21.0833 26.08 21.03C26.02 20.97 25.99 20.89 25.99 20.79V17.34C25.99 17.2267 26.0233 17.1333 26.09 17.06C26.1633 16.9867 26.2633 16.95 26.39 16.95H29.91C30.03 16.95 30.1233 16.98 30.19 17.04C30.2633 17.1 30.3 17.1833 30.3 17.29C30.3 17.3967 30.2633 17.48 30.19 17.54C30.1233 17.6 30.03 17.63 29.91 17.63H26.8V20.14C26.9867 19.96 27.2033 19.8233 27.45 19.73C27.7033 19.63 27.9767 19.58 28.27 19.58Z" fill="#F5F5F7"/>
</svg>
