<svg width="84" height="84" viewBox="0 0 84 84" fill="none" xmlns="http://www.w3.org/2000/svg">
<path d="M52.5714 51.4286H51.5982C51.1474 51.1623 50.6682 50.9473 50.1696 50.7875C48.5982 50.2679 46.5232 50 44 50C41.4768 50 39.4018 50.2679 37.8339 50.7875C36.5786 51.2063 36.0259 51.6679 35.8473 51.8473C35.2708 51.5717 34.6399 51.4286 34.0009 51.4286C33.3619 51.4286 32.731 51.5717 32.1545 51.8473C31.9759 51.6687 31.4232 51.2063 30.1679 50.7875C28.5982 50.2679 26.5232 50 24 50C21.4768 50 19.4018 50.2679 17.8339 50.7875C17.3353 50.9473 16.8562 51.1623 16.4054 51.4286H15.4286C15.0497 51.4286 14.6863 51.5791 14.4184 51.847C14.1505 52.1149 14 52.4783 14 52.8571C14 53.236 14.1505 53.5994 14.4184 53.8673C14.6863 54.1352 15.0497 54.2857 15.4286 54.2857H15.4437C15.533 58.3446 16.0187 60.7839 17.0607 62.5205C17.7134 63.6417 18.714 64.5194 19.9107 65.0205C21.0027 65.4884 22.3411 65.7161 24 65.7161C26.1562 65.7161 29.2214 65.3848 30.9393 62.5223C31.8036 61.0812 32.2866 59.1571 32.4759 56.2259C32.5388 56.0626 32.5712 55.8892 32.5714 55.7143C32.5714 55.3354 32.7219 54.972 32.9898 54.7041C33.2578 54.4362 33.6211 54.2857 34 54.2857C34.3789 54.2857 34.7422 54.4362 35.0102 54.7041C35.2781 54.972 35.4286 55.3354 35.4286 55.7143C35.429 55.8886 35.4614 56.0614 35.5241 56.2241C35.7134 59.1554 36.1964 61.0795 37.0607 62.5205C37.7134 63.6417 38.714 64.5194 39.9107 65.0205C41.0027 65.4884 42.3411 65.7161 44 65.7161C46.1562 65.7161 49.2214 65.3848 50.9393 62.5223C51.9813 60.7857 52.4688 58.3464 52.5563 54.2875H52.5714C52.9503 54.2875 53.3137 54.137 53.5816 53.8691C53.8495 53.6012 54 53.2378 54 52.8589C54 52.48 53.8495 52.1167 53.5816 51.8488C53.3137 51.5809 52.9503 51.4304 52.5714 51.4304V51.4286Z" fill="#736862"/>
<path d="M60 26C58.6739 26 57.4021 26.5268 56.4645 27.4645C55.5268 28.4021 55 29.6739 55 31C55 32.3261 55.5268 33.5979 56.4645 34.5355C57.4021 35.4732 58.6739 36 60 36C61.3261 36 62.5979 35.4732 63.5355 34.5355C64.4732 33.5979 65 32.3261 65 31C65 29.6739 64.4732 28.4021 63.5355 27.4645C62.5979 26.5268 61.3261 26 60 26Z" fill="#796F69"/>
<path fill-rule="evenodd" clip-rule="evenodd" d="M60 20C60.2652 20 60.5196 20.1054 60.7071 20.2929C60.8946 20.4804 61 20.7348 61 21V22C61 22.2652 60.8946 22.5196 60.7071 22.7071C60.5196 22.8946 60.2652 23 60 23C59.7348 23 59.4804 22.8946 59.2929 22.7071C59.1054 22.5196 59 22.2652 59 22V21C59 20.7348 59.1054 20.4804 59.2929 20.2929C59.4804 20.1054 59.7348 20 60 20ZM51.293 22.293C51.4805 22.1055 51.7348 22.0002 52 22.0002C52.2652 22.0002 52.5195 22.1055 52.707 22.293L54.207 23.793C54.3892 23.9816 54.49 24.2342 54.4877 24.4964C54.4854 24.7586 54.3802 25.0094 54.1948 25.1948C54.0094 25.3802 53.7586 25.4854 53.4964 25.4877C53.2342 25.49 52.9816 25.3892 52.793 25.207L51.293 23.707C51.1055 23.5195 51.0002 23.2652 51.0002 23C51.0002 22.7348 51.1055 22.4805 51.293 22.293ZM68.707 22.293C68.8945 22.4805 68.9998 22.7348 68.9998 23C68.9998 23.2652 68.8945 23.5195 68.707 23.707L67.207 25.207C67.1148 25.3025 67.0044 25.3787 66.8824 25.4311C66.7604 25.4835 66.6292 25.5111 66.4964 25.5123C66.3636 25.5134 66.2319 25.4881 66.109 25.4378C65.9862 25.3875 65.8745 25.3133 65.7806 25.2194C65.6867 25.1255 65.6125 25.0139 65.5622 24.891C65.5119 24.7681 65.4866 24.6364 65.4877 24.5036C65.4889 24.3708 65.5165 24.2396 65.5689 24.1176C65.6213 23.9956 65.6975 23.8852 65.793 23.793L67.293 22.293C67.4805 22.1055 67.7348 22.0002 68 22.0002C68.2652 22.0002 68.5195 22.1055 68.707 22.293ZM49 31C49 30.7348 49.1054 30.4804 49.2929 30.2929C49.4804 30.1054 49.7348 30 50 30H51C51.2652 30 51.5196 30.1054 51.7071 30.2929C51.8946 30.4804 52 30.7348 52 31C52 31.2652 51.8946 31.5196 51.7071 31.7071C51.5196 31.8946 51.2652 32 51 32H50C49.7348 32 49.4804 31.8946 49.2929 31.7071C49.1054 31.5196 49 31.2652 49 31ZM68 31C68 30.7348 68.1054 30.4804 68.2929 30.2929C68.4804 30.1054 68.7348 30 69 30H70C70.2652 30 70.5196 30.1054 70.7071 30.2929C70.8946 30.4804 71 30.7348 71 31C71 31.2652 70.8946 31.5196 70.7071 31.7071C70.5196 31.8946 70.2652 32 70 32H69C68.7348 32 68.4804 31.8946 68.2929 31.7071C68.1054 31.5196 68 31.2652 68 31ZM54.207 36.793C54.3945 36.9805 54.4998 37.2348 54.4998 37.5C54.4998 37.7652 54.3945 38.0195 54.207 38.207L52.707 39.707C52.5184 39.8892 52.2658 39.99 52.0036 39.9877C51.7414 39.9854 51.4906 39.8802 51.3052 39.6948C51.1198 39.5094 51.0146 39.2586 51.0123 38.9964C51.01 38.7342 51.1108 38.4816 51.293 38.293L52.793 36.793C52.9805 36.6055 53.2348 36.5002 53.5 36.5002C53.7652 36.5002 54.0195 36.6055 54.207 36.793ZM65.793 36.793C65.9805 36.6055 66.2348 36.5002 66.5 36.5002C66.7652 36.5002 67.0195 36.6055 67.207 36.793L68.707 38.293C68.8892 38.4816 68.99 38.7342 68.9877 38.9964C68.9854 39.2586 68.8802 39.5094 68.6948 39.6948C68.5094 39.8802 68.2586 39.9854 67.9964 39.9877C67.7342 39.99 67.4816 39.8892 67.293 39.707L65.793 38.207C65.6055 38.0195 65.5002 37.7652 65.5002 37.5C65.5002 37.2348 65.6055 36.9805 65.793 36.793ZM60 39C60.2652 39 60.5196 39.1054 60.7071 39.2929C60.8946 39.4804 61 39.7348 61 40V41C61 41.2652 60.8946 41.5196 60.7071 41.7071C60.5196 41.8946 60.2652 42 60 42C59.7348 42 59.4804 41.8946 59.2929 41.7071C59.1054 41.5196 59 41.2652 59 41V40C59 39.7348 59.1054 39.4804 59.2929 39.2929C59.4804 39.1054 59.7348 39 60 39Z" fill="#796F69"/>
<circle cx="42" cy="42" r="41.5" stroke="url(#paint0_linear)" stroke-opacity="0.92"/>
<defs>
<linearGradient id="paint0_linear" x1="9" y1="76.5" x2="84" y2="6.5" gradientUnits="userSpaceOnUse">
<stop stop-color="#B88F8F"/>
<stop offset="1" stop-color="#796F69" stop-opacity="0"/>
</linearGradient>
</defs>
</svg>
