<svg width="39" height="39" viewBox="0 0 39 39" fill="none" xmlns="http://www.w3.org/2000/svg">
<path d="M2 2H5.88889L6.66667 5.88889L2 2ZM9.77778 21.4444H29.2222L37 5.88889H6.66667L9.77778 21.4444ZM9.77778 21.4444L6.66667 5.88889L9.77778 21.4444ZM9.77778 21.4444L5.31917 25.9031C4.09417 27.1281 4.96139 29.2222 6.69389 29.2222H29.2222L9.77778 21.4444ZM29.2222 29.2222C28.1908 29.2222 27.2017 29.6319 26.4724 30.3613C25.7431 31.0906 25.3333 32.0797 25.3333 33.1111C25.3333 34.1425 25.7431 35.1317 26.4724 35.861C27.2017 36.5903 28.1908 37 29.2222 37C30.2536 37 31.2428 36.5903 31.9721 35.861C32.7014 35.1317 33.1111 34.1425 33.1111 33.1111C33.1111 32.0797 32.7014 31.0906 31.9721 30.3613C31.2428 29.6319 30.2536 29.2222 29.2222 29.2222ZM13.6667 33.1111C13.6667 34.1425 13.2569 35.1317 12.5276 35.861C11.7983 36.5903 10.8092 37 9.77778 37C8.74638 37 7.75723 36.5903 7.02792 35.861C6.29861 35.1317 5.88889 34.1425 5.88889 33.1111C5.88889 32.0797 6.29861 31.0906 7.02792 30.3613C7.75723 29.6319 8.74638 29.2222 9.77778 29.2222C10.8092 29.2222 11.7983 29.6319 12.5276 30.3613C13.2569 31.0906 13.6667 32.0797 13.6667 33.1111V33.1111Z" stroke="#736862" stroke-width="3" stroke-linecap="round" stroke-linejoin="round"/>
<circle cx="28" cy="20" r="8" fill="#B88F8F"/>
<path d="M24.78 16.87C25.6333 16.87 26.29 17.1667 26.75 17.76C27.2167 18.3533 27.45 19.2 27.45 20.3C27.45 21.0867 27.3433 21.7633 27.13 22.33C26.9167 22.8967 26.6067 23.33 26.2 23.63C25.7933 23.93 25.31 24.08 24.75 24.08C24.37 24.08 23.99 24.0067 23.61 23.86C23.2367 23.7133 22.9167 23.5133 22.65 23.26C22.5367 23.1533 22.48 23.04 22.48 22.92C22.48 22.82 22.5067 22.7367 22.56 22.67C22.6133 22.6033 22.6767 22.57 22.75 22.57C22.8433 22.57 22.94 22.6067 23.04 22.68C23.62 23.1533 24.1833 23.39 24.73 23.39C25.3233 23.39 25.7867 23.12 26.12 22.58C26.4533 22.04 26.62 21.2833 26.62 20.31V20.18C26.4667 20.5533 26.2167 20.8467 25.87 21.06C25.53 21.2733 25.1433 21.38 24.71 21.38C24.2833 21.38 23.9033 21.2867 23.57 21.1C23.2367 20.9133 22.9767 20.65 22.79 20.31C22.6033 19.97 22.51 19.58 22.51 19.14C22.51 18.7067 22.6067 18.3167 22.8 17.97C22.9933 17.6233 23.2633 17.3533 23.61 17.16C23.9567 16.9667 24.3467 16.87 24.78 16.87ZM24.83 20.69C25.29 20.69 25.6633 20.5467 25.95 20.26C26.2433 19.9667 26.39 19.59 26.39 19.13C26.39 18.6633 26.2433 18.2867 25.95 18C25.6633 17.7067 25.2867 17.56 24.82 17.56C24.3667 17.56 24.0033 17.7033 23.73 17.99C23.4567 18.2767 23.32 18.6567 23.32 19.13C23.32 19.6033 23.4567 19.9833 23.73 20.27C24.01 20.55 24.3767 20.69 24.83 20.69ZM33.1161 20.84C33.2028 20.84 33.2761 20.87 33.3361 20.93C33.4028 20.99 33.4361 21.0633 33.4361 21.15C33.4361 21.2367 33.4061 21.3133 33.3461 21.38C33.2861 21.44 33.2094 21.47 33.1161 21.47H31.3061V23.27C31.3061 23.3633 31.2761 23.44 31.2161 23.5C31.1561 23.56 31.0828 23.59 30.9961 23.59C30.9094 23.59 30.8361 23.56 30.7761 23.5C30.7161 23.4333 30.6861 23.3567 30.6861 23.27V21.47H28.8761C28.7894 21.47 28.7128 21.44 28.6461 21.38C28.5861 21.3133 28.5561 21.2367 28.5561 21.15C28.5561 21.0633 28.5861 20.99 28.6461 20.93C28.7128 20.87 28.7894 20.84 28.8761 20.84H30.6861V19.04C30.6861 18.9467 30.7161 18.87 30.7761 18.81C30.8361 18.7433 30.9094 18.71 30.9961 18.71C31.0828 18.71 31.1561 18.7433 31.2161 18.81C31.2761 18.87 31.3061 18.9467 31.3061 19.04V20.84H33.1161Z" fill="white"/>
</svg>
