<svg width="39" height="39" viewBox="0 0 39 39" fill="none" xmlns="http://www.w3.org/2000/svg">
<path d="M2 2H5.88889L6.66667 5.88889L2 2ZM9.77778 21.4444H29.2222L37 5.88889H6.66667L9.77778 21.4444ZM9.77778 21.4444L6.66667 5.88889L9.77778 21.4444ZM9.77778 21.4444L5.31917 25.9031C4.09417 27.1281 4.96139 29.2222 6.69389 29.2222H29.2222L9.77778 21.4444ZM29.2222 29.2222C28.1908 29.2222 27.2017 29.6319 26.4724 30.3613C25.7431 31.0906 25.3333 32.0797 25.3333 33.1111C25.3333 34.1425 25.7431 35.1317 26.4724 35.861C27.2017 36.5903 28.1908 37 29.2222 37C30.2536 37 31.2428 36.5903 31.9721 35.861C32.7014 35.1317 33.1111 34.1425 33.1111 33.1111C33.1111 32.0797 32.7014 31.0906 31.9721 30.3613C31.2428 29.6319 30.2536 29.2222 29.2222 29.2222ZM13.6667 33.1111C13.6667 34.1425 13.2569 35.1317 12.5276 35.861C11.7983 36.5903 10.8092 37 9.77778 37C8.74638 37 7.75723 36.5903 7.02792 35.861C6.29861 35.1317 5.88889 34.1425 5.88889 33.1111C5.88889 32.0797 6.29861 31.0906 7.02792 30.3613C7.75723 29.6319 8.74638 29.2222 9.77778 29.2222C10.8092 29.2222 11.7983 29.6319 12.5276 30.3613C13.2569 31.0906 13.6667 32.0797 13.6667 33.1111V33.1111Z" stroke="#736862" stroke-width="3" stroke-linecap="round" stroke-linejoin="round"/>
<circle cx="28" cy="20" r="8" fill="#B88F8F"/>
<path d="M29.22 20.38C29.6333 20.5067 29.9533 20.7233 30.18 21.03C30.4133 21.3367 30.53 21.7033 30.53 22.13C30.53 22.7367 30.31 23.2133 29.87 23.56C29.43 23.9 28.8067 24.07 28 24.07C27.1933 24.07 26.57 23.9 26.13 23.56C25.69 23.2133 25.47 22.7367 25.47 22.13C25.47 21.6967 25.5867 21.3267 25.82 21.02C26.0533 20.7133 26.3767 20.5 26.79 20.38C26.4367 20.2467 26.1567 20.0367 25.95 19.75C25.7433 19.4633 25.64 19.1267 25.64 18.74C25.64 18.1667 25.8467 17.7133 26.26 17.38C26.68 17.04 27.26 16.87 28 16.87C28.74 16.87 29.3167 17.04 29.73 17.38C30.15 17.7133 30.36 18.1667 30.36 18.74C30.36 19.1267 30.2567 19.4667 30.05 19.76C29.8433 20.0467 29.5667 20.2533 29.22 20.38ZM26.45 18.8C26.45 19.2133 26.58 19.53 26.84 19.75C27.1067 19.97 27.4933 20.08 28 20.08C28.5067 20.08 28.89 19.97 29.15 19.75C29.4167 19.53 29.55 19.2133 29.55 18.8C29.55 18.4067 29.4167 18.1 29.15 17.88C28.89 17.66 28.5067 17.55 28 17.55C27.4933 17.55 27.1067 17.66 26.84 17.88C26.58 18.1 26.45 18.4067 26.45 18.8ZM28 23.39C29.1467 23.39 29.72 22.9533 29.72 22.08C29.72 21.2067 29.1467 20.77 28 20.77C26.8533 20.77 26.28 21.2067 26.28 22.08C26.28 22.9533 26.8533 23.39 28 23.39Z" fill="#F5F5F7"/>
</svg>
