<svg width="19" height="15" viewBox="0 0 19 15" fill="none" xmlns="http://www.w3.org/2000/svg">
<path d="M1 3.16286e-05C0.801088 3.16286e-05 0.610322 0.0790494 0.46967 0.219702C0.329018 0.360354 0.25 0.551119 0.25 0.750032C0.25 0.948944 0.329018 1.13971 0.46967 1.28036C0.610322 1.42101 0.801088 1.50003 1 1.50003H2.665L4.633 9.37503C4.80025 10.0425 5.398 10.5 6.08575 10.5H15.4382C16.1155 10.5 16.6908 10.05 16.8685 9.39753L18.8125 2.25003H17.242L15.4375 9.00003H6.085L4.11775 1.12503C4.03649 0.801953 3.84916 0.51549 3.58576 0.311517C3.32236 0.107544 2.99813 -0.0021397 2.665 3.16286e-05H1ZM14.5 10.5C13.2662 10.5 12.25 11.5163 12.25 12.75C12.25 13.9838 13.2662 15 14.5 15C15.7338 15 16.75 13.9838 16.75 12.75C16.75 11.5163 15.7338 10.5 14.5 10.5ZM7.75 10.5C6.51625 10.5 5.5 11.5163 5.5 12.75C5.5 13.9838 6.51625 15 7.75 15C8.98375 15 10 13.9838 10 12.75C10 11.5163 8.98375 10.5 7.75 10.5ZM10 3.16286e-05V3.75003H7.75L10.75 6.75003L13.75 3.75003H11.5V3.16286e-05H10ZM7.75 12C8.173 12 8.5 12.327 8.5 12.75C8.5 13.173 8.173 13.5 7.75 13.5C7.327 13.5 7 13.173 7 12.75C7 12.327 7.327 12 7.75 12ZM14.5 12C14.923 12 15.25 12.327 15.25 12.75C15.25 13.173 14.923 13.5 14.5 13.5C14.077 13.5 13.75 13.173 13.75 12.75C13.75 12.327 14.077 12 14.5 12Z" fill="#736862"/>
</svg>
