<svg width="39" height="39" viewBox="0 0 39 39" fill="none" xmlns="http://www.w3.org/2000/svg">
<path d="M2 2H5.88889L6.66667 5.88889L2 2ZM9.77778 21.4444H29.2222L37 5.88889H6.66667L9.77778 21.4444ZM9.77778 21.4444L6.66667 5.88889L9.77778 21.4444ZM9.77778 21.4444L5.31917 25.9031C4.09417 27.1281 4.96139 29.2222 6.69389 29.2222H29.2222L9.77778 21.4444ZM29.2222 29.2222C28.1908 29.2222 27.2017 29.6319 26.4724 30.3613C25.7431 31.0906 25.3333 32.0797 25.3333 33.1111C25.3333 34.1425 25.7431 35.1317 26.4724 35.861C27.2017 36.5903 28.1908 37 29.2222 37C30.2536 37 31.2428 36.5903 31.9721 35.861C32.7014 35.1317 33.1111 34.1425 33.1111 33.1111C33.1111 32.0797 32.7014 31.0906 31.9721 30.3613C31.2428 29.6319 30.2536 29.2222 29.2222 29.2222ZM13.6667 33.1111C13.6667 34.1425 13.2569 35.1317 12.5276 35.861C11.7983 36.5903 10.8092 37 9.77778 37C8.74638 37 7.75723 36.5903 7.02792 35.861C6.29861 35.1317 5.88889 34.1425 5.88889 33.1111C5.88889 32.0797 6.29861 31.0906 7.02792 30.3613C7.75723 29.6319 8.74638 29.2222 9.77778 29.2222C10.8092 29.2222 11.7983 29.6319 12.5276 30.3613C13.2569 31.0906 13.6667 32.0797 13.6667 33.1111V33.1111Z" stroke="#736862" stroke-width="3" stroke-linecap="round" stroke-linejoin="round"/>
<circle cx="28" cy="20" r="8" fill="#B88F8F"/>
<path d="M29.92 23.31C30.04 23.31 30.1333 23.34 30.2 23.4C30.2667 23.46 30.3 23.5433 30.3 23.65C30.3 23.7633 30.2667 23.85 30.2 23.91C30.14 23.97 30.0467 24 29.92 24H26.61C26.4833 24 26.3867 23.97 26.32 23.91C26.26 23.85 26.23 23.7633 26.23 23.65C26.23 23.5433 26.2633 23.46 26.33 23.4C26.3967 23.34 26.49 23.31 26.61 23.31H27.85V17.95L26.76 18.66C26.7067 18.6933 26.6533 18.71 26.6 18.71C26.5067 18.71 26.4233 18.6667 26.35 18.58C26.2833 18.4933 26.25 18.4 26.25 18.3C26.25 18.16 26.3033 18.06 26.41 18L27.93 17.01C28.0433 16.9367 28.16 16.9 28.28 16.9C28.3933 16.9 28.4867 16.9367 28.56 17.01C28.6333 17.0833 28.67 17.1867 28.67 17.32V23.31H29.92Z" fill="#F5F5F7"/>
</svg>
