<svg width="60" height="62" viewBox="0 0 60 62" fill="none" xmlns="http://www.w3.org/2000/svg">
<path d="M1.50113 21.1611L28.5001 36.7605C28.9561 37.0238 29.4734 37.1624 30 37.1624C30.5266 37.1624 31.0439 37.0238 31.4999 36.7605L58.4989 21.1611C58.9523 20.8993 59.3293 20.5235 59.5924 20.0709C59.8555 19.6183 59.9957 19.1047 59.9988 18.5812C60.0009 18.0526 59.8633 17.5328 59.5999 17.0745C59.3365 16.6162 58.9567 16.2356 58.4989 15.9713L31.4999 0.401908C31.0439 0.138614 30.5266 0 30 0C29.4734 0 28.9561 0.138614 28.5001 0.401908L1.50113 15.9713C1.04334 16.2356 0.663508 16.6162 0.400109 17.0745C0.136709 17.5328 -0.000908533 18.0526 0.00119009 18.5812C0.00435007 19.1047 0.144461 19.6183 0.407598 20.0709C0.670735 20.5235 1.04773 20.8993 1.50113 21.1611ZM30 6.58166L50.9992 18.5812L30 30.5807L9.00083 18.5812L30 6.58166ZM55.499 28.0908L30 42.5802L4.50101 27.9708C4.15862 27.7725 3.78038 27.6438 3.38806 27.5923C2.99574 27.5407 2.5971 27.5673 2.21509 27.6705C1.83309 27.7736 1.47527 27.9514 1.16224 28.1934C0.849208 28.4354 0.587157 28.737 0.391175 29.0808C7.29979e-05 29.7696 -0.102722 30.5851 0.105221 31.3495C0.313163 32.1138 0.814963 32.7649 1.50113 33.1606L28.5001 48.76C28.9561 49.0233 29.4734 49.1619 30 49.1619C30.5266 49.1619 31.0439 49.0233 31.4999 48.76L58.4989 33.1606C59.185 32.7649 59.6868 32.1138 59.8948 31.3495C60.1027 30.5851 59.9999 29.7696 59.6088 29.0808C59.4128 28.737 59.1508 28.4354 58.8378 28.1934C58.5247 27.9514 58.1669 27.7736 57.7849 27.6705C57.4029 27.5673 57.0043 27.5407 56.6119 27.5923C56.2196 27.6438 55.8414 27.7725 55.499 27.9708V28.0908ZM55.499 40.0903L30 54.5798L4.50101 39.9703C4.15862 39.772 3.78038 39.6433 3.38806 39.5918C2.99574 39.5402 2.5971 39.5668 2.21509 39.67C1.83309 39.7732 1.47527 39.9509 1.16224 40.1929C0.849208 40.435 0.587157 40.7365 0.391175 41.0803C7.29979e-05 41.7691 -0.102722 42.5847 0.105221 43.349C0.313163 44.1133 0.814963 44.7644 1.50113 45.1601L28.5001 60.7595C28.9561 61.0228 29.4734 61.1614 30 61.1614C30.5266 61.1614 31.0439 61.0228 31.4999 60.7595L58.4989 45.1601C59.185 44.7644 59.6868 44.1133 59.8948 43.349C60.1027 42.5847 59.9999 41.7691 59.6088 41.0803C59.4128 40.7365 59.1508 40.435 58.8378 40.1929C58.5247 39.9509 58.1669 39.7732 57.7849 39.67C57.4029 39.5668 57.0043 39.5402 56.6119 39.5918C56.2196 39.6433 55.8414 39.772 55.499 39.9703V40.0903Z" fill="#736862"/>
</svg>
