<svg width="22" height="21" viewBox="0 0 22 21" fill="none" xmlns="http://www.w3.org/2000/svg">
<path fill-rule="evenodd" clip-rule="evenodd" d="M1.6672 10.024C1.6672 14.8944 5.1984 18.2128 9.1648 18.8992C9.27269 18.9179 9.37585 18.9577 9.46837 19.0162C9.5609 19.0748 9.64098 19.151 9.70405 19.2405C9.76712 19.33 9.81194 19.4311 9.83595 19.5379C9.85997 19.6448 9.8627 19.7553 9.844 19.8632C9.8253 19.9711 9.78553 20.0742 9.72697 20.1668C9.6684 20.2593 9.59218 20.3394 9.50267 20.4025C9.41315 20.4655 9.31209 20.5103 9.20525 20.5344C9.09841 20.5584 8.98789 20.5611 8.88 20.5424C4.2224 19.736 0 15.8096 0 10.024C0 7.5648 1.1184 5.632 2.424 4.1632C3.36 3.1104 4.4304 2.2544 5.2912 1.6H2.6736C2.46143 1.6 2.25794 1.51571 2.10791 1.36569C1.95789 1.21566 1.8736 1.01217 1.8736 0.8C1.8736 0.587827 1.95789 0.384344 2.10791 0.234315C2.25794 0.0842856 2.46143 0 2.6736 0H7.4736C7.68577 0 7.88926 0.0842856 8.03929 0.234315C8.18931 0.384344 8.2736 0.587827 8.2736 0.8V5.6C8.2736 5.81217 8.18931 6.01566 8.03929 6.16569C7.88926 6.31571 7.68577 6.4 7.4736 6.4C7.26143 6.4 7.05794 6.31571 6.90791 6.16569C6.75789 6.01566 6.6736 5.81217 6.6736 5.6V2.6464L6.672 2.6496C5.7568 3.3376 4.64 4.1808 3.672 5.2704C2.528 6.5568 1.6672 8.112 1.6672 10.0224V10.024ZM19.44 10.6736C19.44 5.8544 15.984 2.5568 12.0688 1.8208C11.9597 1.80229 11.8553 1.76222 11.7619 1.70296C11.6684 1.64369 11.5876 1.56639 11.5244 1.47559C11.4611 1.38479 11.4165 1.28229 11.3933 1.17408C11.37 1.06587 11.3685 0.954109 11.3889 0.845323C11.4093 0.736537 11.4512 0.632903 11.5121 0.540465C11.5729 0.448028 11.6516 0.368639 11.7435 0.30693C11.8354 0.245221 11.9386 0.202428 12.0472 0.181047C12.1558 0.159667 12.2676 0.160127 12.376 0.1824C16.9744 1.0464 21.1072 4.9504 21.1072 10.6736C21.1072 13.1328 19.9888 15.064 18.6832 16.5344C17.7472 17.5872 16.6768 18.4432 15.816 19.0976H18.4336C18.6458 19.0976 18.8493 19.1819 18.9993 19.3319C19.1493 19.4819 19.2336 19.6854 19.2336 19.8976C19.2336 20.1098 19.1493 20.3133 18.9993 20.4633C18.8493 20.6133 18.6458 20.6976 18.4336 20.6976H13.6336C13.4214 20.6976 13.2179 20.6133 13.0679 20.4633C12.9179 20.3133 12.8336 20.1098 12.8336 19.8976V15.0976C12.8336 14.8854 12.9179 14.6819 13.0679 14.5319C13.2179 14.3819 13.4214 14.2976 13.6336 14.2976C13.8458 14.2976 14.0493 14.3819 14.1993 14.5319C14.3493 14.6819 14.4336 14.8854 14.4336 15.0976V18.0496H14.4368C15.3504 17.3584 16.4688 16.5168 17.4352 15.4256C18.5792 14.1408 19.44 12.5856 19.44 10.6736Z" fill="#736862"/>
</svg>
