<svg width="39" height="39" viewBox="0 0 39 39" fill="none" xmlns="http://www.w3.org/2000/svg">
<path d="M2 2H5.88889L6.66667 5.88889L2 2ZM9.77778 21.4444H29.2222L37 5.88889H6.66667L9.77778 21.4444ZM9.77778 21.4444L6.66667 5.88889L9.77778 21.4444ZM9.77778 21.4444L5.31917 25.9031C4.09417 27.1281 4.96139 29.2222 6.69389 29.2222H29.2222L9.77778 21.4444ZM29.2222 29.2222C28.1908 29.2222 27.2017 29.6319 26.4724 30.3613C25.7431 31.0906 25.3333 32.0797 25.3333 33.1111C25.3333 34.1425 25.7431 35.1317 26.4724 35.861C27.2017 36.5903 28.1908 37 29.2222 37C30.2536 37 31.2428 36.5903 31.9721 35.861C32.7014 35.1317 33.1111 34.1425 33.1111 33.1111C33.1111 32.0797 32.7014 31.0906 31.9721 30.3613C31.2428 29.6319 30.2536 29.2222 29.2222 29.2222ZM13.6667 33.1111C13.6667 34.1425 13.2569 35.1317 12.5276 35.861C11.7983 36.5903 10.8092 37 9.77778 37C8.74638 37 7.75723 36.5903 7.02792 35.861C6.29861 35.1317 5.88889 34.1425 5.88889 33.1111C5.88889 32.0797 6.29861 31.0906 7.02792 30.3613C7.75723 29.6319 8.74638 29.2222 9.77778 29.2222C10.8092 29.2222 11.7983 29.6319 12.5276 30.3613C13.2569 31.0906 13.6667 32.0797 13.6667 33.1111V33.1111Z" stroke="#736862" stroke-width="3" stroke-linecap="round" stroke-linejoin="round"/>
<circle cx="28" cy="20" r="8" fill="#B88F8F"/>
<path d="M28.94 20.38C29.3667 20.5 29.69 20.7067 29.91 21C30.1367 21.2933 30.25 21.6567 30.25 22.09C30.25 22.7033 30.0433 23.1867 29.63 23.54C29.2167 23.8933 28.6533 24.07 27.94 24.07C27.5067 24.07 27.09 23.9967 26.69 23.85C26.2967 23.7033 25.9633 23.5033 25.69 23.25C25.5833 23.15 25.53 23.0367 25.53 22.91C25.53 22.81 25.5567 22.7267 25.61 22.66C25.6633 22.5933 25.7267 22.56 25.8 22.56C25.8933 22.56 25.9867 22.5967 26.08 22.67C26.3867 22.9167 26.6867 23.0967 26.98 23.21C27.2733 23.3233 27.59 23.38 27.93 23.38C28.4233 23.38 28.7967 23.2667 29.05 23.04C29.31 22.8133 29.44 22.4867 29.44 22.06C29.44 21.2 28.9 20.77 27.82 20.77H27.29C27.1833 20.77 27.0967 20.7367 27.03 20.67C26.97 20.5967 26.94 20.5133 26.94 20.42C26.94 20.3267 26.97 20.2467 27.03 20.18C27.0967 20.1133 27.1833 20.08 27.29 20.08H27.66C28.18 20.08 28.58 19.9667 28.86 19.74C29.14 19.5067 29.28 19.1733 29.28 18.74C29.28 18.36 29.1667 18.07 28.94 17.87C28.7133 17.6633 28.3933 17.56 27.98 17.56C27.6667 17.56 27.3633 17.62 27.07 17.74C26.7767 17.8533 26.4833 18.03 26.19 18.27C26.0967 18.3433 26.0033 18.38 25.91 18.38C25.8367 18.38 25.7733 18.3467 25.72 18.28C25.6667 18.2133 25.64 18.13 25.64 18.03C25.64 17.9033 25.6933 17.79 25.8 17.69C26.0733 17.4367 26.4033 17.2367 26.79 17.09C27.1833 16.9433 27.5867 16.87 28 16.87C28.64 16.87 29.15 17.0333 29.53 17.36C29.91 17.6867 30.0967 18.1267 30.09 18.68C30.0833 19.08 29.9767 19.43 29.77 19.73C29.57 20.03 29.2933 20.2467 28.94 20.38Z" fill="#F5F5F7"/>
</svg>
