<svg width="58" height="64" viewBox="0 0 58 64" fill="none" xmlns="http://www.w3.org/2000/svg">
<path d="M4.46112 25.52C4.58342 24.0164 5.27526 22.6134 6.39883 21.5905C7.52241 20.5676 8.99528 19.9997 10.5241 20H47.188C48.7169 19.9997 50.1897 20.5676 51.3133 21.5905C52.4369 22.6134 53.1287 24.0164 53.251 25.52L55.6927 55.52C55.7598 56.3456 55.653 57.1759 55.379 57.9588C55.1049 58.7416 54.6696 59.46 54.1003 60.0687C53.531 60.6775 52.8402 61.1633 52.0713 61.4957C51.3025 61.828 50.4721 61.9998 49.6327 62H8.07946C7.24001 61.9998 6.40971 61.828 5.64082 61.4957C4.87193 61.1633 4.18111 60.6775 3.61186 60.0687C3.0426 59.46 2.60725 58.7416 2.3332 57.9588C2.05915 57.1759 1.95234 56.3456 2.01949 55.52L4.46112 25.52V25.52Z" stroke="#736862" stroke-width="4" stroke-linecap="round" stroke-linejoin="round"/>
<path d="M41.0186 29V14C41.0186 10.8174 39.7372 7.76516 37.4563 5.51472C35.1754 3.26428 32.0818 2 28.8561 2C25.6304 2 22.5368 3.26428 20.2559 5.51472C17.975 7.76516 16.6936 10.8174 16.6936 14V29" stroke="#736862" stroke-width="4" stroke-linecap="round" stroke-linejoin="round"/>
</svg>
