<svg width="39" height="39" viewBox="0 0 39 39" fill="none" xmlns="http://www.w3.org/2000/svg">
<path d="M2 2H5.88889L6.66667 5.88889L2 2ZM9.77778 21.4444H29.2222L37 5.88889H6.66667L9.77778 21.4444ZM9.77778 21.4444L6.66667 5.88889L9.77778 21.4444ZM9.77778 21.4444L5.31917 25.9031C4.09417 27.1281 4.96139 29.2222 6.69389 29.2222H29.2222L9.77778 21.4444ZM29.2222 29.2222C28.1908 29.2222 27.2017 29.6319 26.4724 30.3613C25.7431 31.0906 25.3333 32.0797 25.3333 33.1111C25.3333 34.1425 25.7431 35.1317 26.4724 35.861C27.2017 36.5903 28.1908 37 29.2222 37C30.2536 37 31.2428 36.5903 31.9721 35.861C32.7014 35.1317 33.1111 34.1425 33.1111 33.1111C33.1111 32.0797 32.7014 31.0906 31.9721 30.3613C31.2428 29.6319 30.2536 29.2222 29.2222 29.2222ZM13.6667 33.1111C13.6667 34.1425 13.2569 35.1317 12.5276 35.861C11.7983 36.5903 10.8092 37 9.77778 37C8.74638 37 7.75723 36.5903 7.02792 35.861C6.29861 35.1317 5.88889 34.1425 5.88889 33.1111C5.88889 32.0797 6.29861 31.0906 7.02792 30.3613C7.75723 29.6319 8.74638 29.2222 9.77778 29.2222C10.8092 29.2222 11.7983 29.6319 12.5276 30.3613C13.2569 31.0906 13.6667 32.0797 13.6667 33.1111V33.1111Z" stroke="#736862" stroke-width="3" stroke-linecap="round" stroke-linejoin="round"/>
<circle cx="28" cy="20" r="8" fill="#B88F8F"/>
<path d="M30.08 23.31C30.2 23.31 30.2933 23.34 30.36 23.4C30.4267 23.46 30.46 23.5433 30.46 23.65C30.46 23.8833 30.3333 24 30.08 24H26.16C26.0467 24 25.9533 23.9667 25.88 23.9C25.8067 23.8267 25.77 23.74 25.77 23.64C25.77 23.5133 25.8167 23.4033 25.91 23.31L28.32 20.66C28.6533 20.2867 28.8933 19.9533 29.04 19.66C29.1933 19.36 29.27 19.06 29.27 18.76C29.27 18.3733 29.1567 18.0767 28.93 17.87C28.71 17.6633 28.3967 17.56 27.99 17.56C27.67 17.56 27.3633 17.62 27.07 17.74C26.7767 17.8533 26.4833 18.03 26.19 18.27C26.09 18.35 25.9967 18.39 25.91 18.39C25.8367 18.39 25.7733 18.3567 25.72 18.29C25.6667 18.2167 25.64 18.13 25.64 18.03C25.64 17.89 25.6933 17.7767 25.8 17.69C26.0733 17.4367 26.4067 17.2367 26.8 17.09C27.1933 16.9433 27.5967 16.87 28.01 16.87C28.6433 16.87 29.1467 17.0367 29.52 17.37C29.9 17.7033 30.09 18.1533 30.09 18.72C30.09 19.1267 29.9967 19.5167 29.81 19.89C29.63 20.2633 29.33 20.68 28.91 21.14L26.91 23.31H30.08Z" fill="#F5F5F7"/>
</svg>
