<svg width="39" height="39" viewBox="0 0 39 39" fill="none" xmlns="http://www.w3.org/2000/svg">
<path d="M2 2H5.88889L6.66667 5.88889L2 2ZM9.77778 21.4444H29.2222L37 5.88889H6.66667L9.77778 21.4444ZM9.77778 21.4444L6.66667 5.88889L9.77778 21.4444ZM9.77778 21.4444L5.31917 25.9031C4.09417 27.1281 4.96139 29.2222 6.69389 29.2222H29.2222L9.77778 21.4444ZM29.2222 29.2222C28.1908 29.2222 27.2017 29.6319 26.4724 30.3613C25.7431 31.0906 25.3333 32.0797 25.3333 33.1111C25.3333 34.1425 25.7431 35.1317 26.4724 35.861C27.2017 36.5903 28.1908 37 29.2222 37C30.2536 37 31.2428 36.5903 31.9721 35.861C32.7014 35.1317 33.1111 34.1425 33.1111 33.1111C33.1111 32.0797 32.7014 31.0906 31.9721 30.3613C31.2428 29.6319 30.2536 29.2222 29.2222 29.2222ZM13.6667 33.1111C13.6667 34.1425 13.2569 35.1317 12.5276 35.861C11.7983 36.5903 10.8092 37 9.77778 37C8.74638 37 7.75723 36.5903 7.02792 35.861C6.29861 35.1317 5.88889 34.1425 5.88889 33.1111C5.88889 32.0797 6.29861 31.0906 7.02792 30.3613C7.75723 29.6319 8.74638 29.2222 9.77778 29.2222C10.8092 29.2222 11.7983 29.6319 12.5276 30.3613C13.2569 31.0906 13.6667 32.0797 13.6667 33.1111V33.1111Z" stroke="#736862" stroke-width="3" stroke-linecap="round" stroke-linejoin="round"/>
<circle cx="28" cy="20" r="8" fill="#B88F8F"/>
<path d="M28.29 19.57C28.7167 19.57 29.0967 19.6633 29.43 19.85C29.7633 20.0367 30.0233 20.3 30.21 20.64C30.3967 20.98 30.49 21.37 30.49 21.81C30.49 22.2433 30.3933 22.6333 30.2 22.98C30.0067 23.3267 29.7367 23.5967 29.39 23.79C29.0433 23.9833 28.6533 24.08 28.22 24.08C27.3667 24.08 26.7067 23.7833 26.24 23.19C25.78 22.5967 25.55 21.75 25.55 20.65C25.55 19.8633 25.6567 19.1867 25.87 18.62C26.0833 18.0533 26.3933 17.62 26.8 17.32C27.2067 17.02 27.69 16.87 28.25 16.87C28.63 16.87 29.0067 16.9433 29.38 17.09C29.76 17.2367 30.0833 17.4367 30.35 17.69C30.4633 17.7967 30.52 17.91 30.52 18.03C30.52 18.13 30.4933 18.2133 30.44 18.28C30.3867 18.3467 30.3233 18.38 30.25 18.38C30.1567 18.38 30.06 18.3433 29.96 18.27C29.38 17.7967 28.8167 17.56 28.27 17.56C27.6767 17.56 27.2133 17.83 26.88 18.37C26.5467 18.91 26.38 19.6667 26.38 20.64V20.77C26.5333 20.3967 26.78 20.1033 27.12 19.89C27.4667 19.6767 27.8567 19.57 28.29 19.57ZM28.18 23.39C28.6333 23.39 28.9967 23.2467 29.27 22.96C29.5433 22.6733 29.68 22.2933 29.68 21.82C29.68 21.3467 29.54 20.97 29.26 20.69C28.9867 20.4033 28.6233 20.26 28.17 20.26C27.71 20.26 27.3333 20.4067 27.04 20.7C26.7533 20.9867 26.61 21.36 26.61 21.82C26.61 22.2867 26.7533 22.6667 27.04 22.96C27.3333 23.2467 27.7133 23.39 28.18 23.39Z" fill="#F5F5F7"/>
</svg>
