<svg width="39" height="39" viewBox="0 0 39 39" fill="none" xmlns="http://www.w3.org/2000/svg">
<path d="M2 2H5.88889L6.66667 5.88889L2 2ZM9.77778 21.4444H29.2222L37 5.88889H6.66667L9.77778 21.4444ZM9.77778 21.4444L6.66667 5.88889L9.77778 21.4444ZM9.77778 21.4444L5.31917 25.9031C4.09417 27.1281 4.96139 29.2222 6.69389 29.2222H29.2222L9.77778 21.4444ZM29.2222 29.2222C28.1908 29.2222 27.2017 29.6319 26.4724 30.3613C25.7431 31.0906 25.3333 32.0797 25.3333 33.1111C25.3333 34.1425 25.7431 35.1317 26.4724 35.861C27.2017 36.5903 28.1908 37 29.2222 37C30.2536 37 31.2428 36.5903 31.9721 35.861C32.7014 35.1317 33.1111 34.1425 33.1111 33.1111C33.1111 32.0797 32.7014 31.0906 31.9721 30.3613C31.2428 29.6319 30.2536 29.2222 29.2222 29.2222ZM13.6667 33.1111C13.6667 34.1425 13.2569 35.1317 12.5276 35.861C11.7983 36.5903 10.8092 37 9.77778 37C8.74638 37 7.75723 36.5903 7.02792 35.861C6.29861 35.1317 5.88889 34.1425 5.88889 33.1111C5.88889 32.0797 6.29861 31.0906 7.02792 30.3613C7.75723 29.6319 8.74638 29.2222 9.77778 29.2222C10.8092 29.2222 11.7983 29.6319 12.5276 30.3613C13.2569 31.0906 13.6667 32.0797 13.6667 33.1111V33.1111Z" stroke="#736862" stroke-width="3" stroke-linecap="round" stroke-linejoin="round"/>
<circle cx="28" cy="20" r="8" fill="#B88F8F"/>
<path d="M27.78 16.87C28.6333 16.87 29.29 17.1667 29.75 17.76C30.2167 18.3533 30.45 19.2 30.45 20.3C30.45 21.0867 30.3433 21.7633 30.13 22.33C29.9167 22.8967 29.6067 23.33 29.2 23.63C28.7933 23.93 28.31 24.08 27.75 24.08C27.37 24.08 26.99 24.0067 26.61 23.86C26.2367 23.7133 25.9167 23.5133 25.65 23.26C25.5367 23.1533 25.48 23.04 25.48 22.92C25.48 22.82 25.5067 22.7367 25.56 22.67C25.6133 22.6033 25.6767 22.57 25.75 22.57C25.8433 22.57 25.94 22.6067 26.04 22.68C26.62 23.1533 27.1833 23.39 27.73 23.39C28.3233 23.39 28.7867 23.12 29.12 22.58C29.4533 22.04 29.62 21.2833 29.62 20.31V20.18C29.4667 20.5533 29.2167 20.8467 28.87 21.06C28.53 21.2733 28.1433 21.38 27.71 21.38C27.2833 21.38 26.9033 21.2867 26.57 21.1C26.2367 20.9133 25.9767 20.65 25.79 20.31C25.6033 19.97 25.51 19.58 25.51 19.14C25.51 18.7067 25.6067 18.3167 25.8 17.97C25.9933 17.6233 26.2633 17.3533 26.61 17.16C26.9567 16.9667 27.3467 16.87 27.78 16.87ZM27.83 20.69C28.29 20.69 28.6633 20.5467 28.95 20.26C29.2433 19.9667 29.39 19.59 29.39 19.13C29.39 18.6633 29.2433 18.2867 28.95 18C28.6633 17.7067 28.2867 17.56 27.82 17.56C27.3667 17.56 27.0033 17.7033 26.73 17.99C26.4567 18.2767 26.32 18.6567 26.32 19.13C26.32 19.6033 26.4567 19.9833 26.73 20.27C27.01 20.55 27.3767 20.69 27.83 20.69Z" fill="#F5F5F7"/>
</svg>
