<svg width="39" height="39" viewBox="0 0 39 39" fill="none" xmlns="http://www.w3.org/2000/svg">
<path d="M2 2H5.88889L6.66667 5.88889L2 2ZM9.77778 21.4444H29.2222L37 5.88889H6.66667L9.77778 21.4444ZM9.77778 21.4444L6.66667 5.88889L9.77778 21.4444ZM9.77778 21.4444L5.31917 25.9031C4.09417 27.1281 4.96139 29.2222 6.69389 29.2222H29.2222L9.77778 21.4444ZM29.2222 29.2222C28.1908 29.2222 27.2017 29.6319 26.4724 30.3613C25.7431 31.0906 25.3333 32.0797 25.3333 33.1111C25.3333 34.1425 25.7431 35.1317 26.4724 35.861C27.2017 36.5903 28.1908 37 29.2222 37C30.2536 37 31.2428 36.5903 31.9721 35.861C32.7014 35.1317 33.1111 34.1425 33.1111 33.1111C33.1111 32.0797 32.7014 31.0906 31.9721 30.3613C31.2428 29.6319 30.2536 29.2222 29.2222 29.2222ZM13.6667 33.1111C13.6667 34.1425 13.2569 35.1317 12.5276 35.861C11.7983 36.5903 10.8092 37 9.77778 37C8.74638 37 7.75723 36.5903 7.02792 35.861C6.29861 35.1317 5.88889 34.1425 5.88889 33.1111C5.88889 32.0797 6.29861 31.0906 7.02792 30.3613C7.75723 29.6319 8.74638 29.2222 9.77778 29.2222C10.8092 29.2222 11.7983 29.6319 12.5276 30.3613C13.2569 31.0906 13.6667 32.0797 13.6667 33.1111V33.1111Z" stroke="#736862" stroke-width="3" stroke-linecap="round" stroke-linejoin="round"/>
<circle cx="28" cy="20" r="8" fill="#B88F8F"/>
<path d="M30.03 16.95C30.15 16.95 30.24 16.9833 30.3 17.05C30.3667 17.11 30.4 17.19 30.4 17.29C30.4 17.3833 30.37 17.4867 30.31 17.6L26.99 23.85C26.91 23.9967 26.7933 24.07 26.64 24.07C26.5333 24.07 26.4367 24.0333 26.35 23.96C26.27 23.8867 26.23 23.7967 26.23 23.69C26.23 23.6167 26.2533 23.5433 26.3 23.47L29.42 17.64H25.97C25.85 17.64 25.7567 17.61 25.69 17.55C25.63 17.49 25.6 17.4067 25.6 17.3C25.6 17.1867 25.63 17.1 25.69 17.04C25.7567 16.98 25.85 16.95 25.97 16.95H30.03Z" fill="#F5F5F7"/>
</svg>
