<svg width="40" height="41" viewBox="0 0 40 41" fill="none" xmlns="http://www.w3.org/2000/svg">
<path d="M1.00039 14.1074L18.9997 24.507C19.3037 24.6825 19.6486 24.7749 19.9996 24.7749C20.3507 24.7749 20.6956 24.6825 20.9996 24.507L38.9989 14.1074C39.3011 13.9329 39.5525 13.6823 39.7279 13.3806C39.9033 13.0789 39.9967 12.7365 39.9988 12.3875C40.0002 12.0351 39.9085 11.6885 39.7329 11.383C39.5573 11.0774 39.3041 10.8237 38.9989 10.6475L20.9996 0.267939C20.6956 0.092409 20.3507 0 19.9996 0C19.6486 0 19.3037 0.092409 18.9997 0.267939L1.00039 10.6475C0.695191 10.8237 0.441973 11.0774 0.266373 11.383C0.0907734 11.6885 -0.000971899 12.0351 0.00042718 12.3875C0.00253384 12.7365 0.0959412 13.0789 0.271366 13.3806C0.44679 13.6823 0.698124 13.9329 1.00039 14.1074ZM19.9996 4.38777L33.9991 12.3875L19.9996 20.3871L6.00019 12.3875L19.9996 4.38777ZM36.999 18.7272L19.9996 28.3868L3.00031 18.6472C2.77205 18.515 2.51989 18.4292 2.25834 18.3948C1.99679 18.3605 1.73103 18.3782 1.47636 18.447C1.22169 18.5158 0.983144 18.6342 0.774458 18.7956C0.565772 18.957 0.391072 19.158 0.260417 19.3872C-0.000317546 19.8464 -0.0688474 20.3901 0.0697809 20.8996C0.208409 21.4092 0.542942 21.8432 1.00039 22.1071L18.9997 32.5067C19.3037 32.6822 19.6486 32.7746 19.9996 32.7746C20.3507 32.7746 20.6956 32.6822 20.9996 32.5067L38.9989 22.1071C39.4563 21.8432 39.7909 21.4092 39.9295 20.8996C40.0681 20.3901 39.9996 19.8464 39.7388 19.3872C39.6082 19.158 39.4335 18.957 39.2248 18.7956C39.0161 18.6342 38.7776 18.5158 38.5229 18.447C38.2682 18.3782 38.0025 18.3605 37.7409 18.3948C37.4794 18.4292 37.2272 18.515 36.999 18.6472V18.7272ZM36.999 26.7269L19.9996 36.3865L3.00031 26.6469C2.77205 26.5147 2.51989 26.4289 2.25834 26.3945C1.99679 26.3602 1.73103 26.3779 1.47636 26.4467C1.22169 26.5154 0.983144 26.6339 0.774458 26.7953C0.565772 26.9566 0.391072 27.1577 0.260417 27.3869C-0.000317546 27.8461 -0.0688474 28.3898 0.0697809 28.8993C0.208409 29.4089 0.542942 29.8429 1.00039 30.1068L18.9997 40.5063C19.3037 40.6819 19.6486 40.7743 19.9996 40.7743C20.3507 40.7743 20.6956 40.6819 20.9996 40.5063L38.9989 30.1068C39.4563 29.8429 39.7909 29.4089 39.9295 28.8993C40.0681 28.3898 39.9996 27.8461 39.7388 27.3869C39.6082 27.1577 39.4335 26.9566 39.2248 26.7953C39.0161 26.6339 38.7776 26.5154 38.5229 26.4467C38.2682 26.3779 38.0025 26.3602 37.7409 26.3945C37.4794 26.4289 37.2272 26.5147 36.999 26.6469V26.7269Z" fill="#736862"/>
</svg>
