<svg width="30" height="29" viewBox="0 0 30 29" fill="none" xmlns="http://www.w3.org/2000/svg">
<path d="M15.0003 7.3125C15.239 7.3125 15.4679 7.40139 15.6367 7.55963C15.8055 7.71786 15.9003 7.93247 15.9003 8.15625V13.2188H21.3003C21.539 13.2188 21.7679 13.3076 21.9367 13.4659C22.1055 13.6241 22.2003 13.8387 22.2003 14.0625C22.2003 14.2863 22.1055 14.5009 21.9367 14.6591C21.7679 14.8174 21.539 14.9062 21.3003 14.9062H15.9003V19.9688C15.9003 20.1925 15.8055 20.4071 15.6367 20.5654C15.4679 20.7236 15.239 20.8125 15.0003 20.8125C14.7616 20.8125 14.5327 20.7236 14.3639 20.5654C14.1951 20.4071 14.1003 20.1925 14.1003 19.9688V14.9062H8.70029C8.4616 14.9062 8.23268 14.8174 8.0639 14.6591C7.89511 14.5009 7.80029 14.2863 7.80029 14.0625C7.80029 13.8387 7.89511 13.6241 8.0639 13.4659C8.23268 13.3076 8.4616 13.2188 8.70029 13.2188H14.1003V8.15625C14.1003 7.93247 14.1951 7.71786 14.3639 7.55963C14.5327 7.40139 14.7616 7.3125 15.0003 7.3125V7.3125Z" fill="#796F69"/>
<path d="M29.5 14.0625C29.5 21.523 23.039 27.625 15 27.625C6.96098 27.625 0.5 21.523 0.5 14.0625C0.5 6.60205 6.96098 0.5 15 0.5C23.039 0.5 29.5 6.60205 29.5 14.0625Z" stroke="url(#paint0_linear)" stroke-opacity="0.92"/>
<defs>
<linearGradient id="paint0_linear" x1="3.21429" y1="25.6138" x2="28.3854" y2="0.554564" gradientUnits="userSpaceOnUse">
<stop stop-color="#B88F8F"/>
<stop offset="1" stop-color="#796F69" stop-opacity="0"/>
</linearGradient>
</defs>
</svg>
