<svg width="84" height="84" viewBox="0 0 84 84" fill="none" xmlns="http://www.w3.org/2000/svg">
<circle cx="42" cy="42" r="41.5" stroke="url(#paint0_linear)" stroke-opacity="0.92"/>
<path d="M61.9679 43.5631C59.241 43.0083 56.5453 41.977 53.7637 42.0004C52.1697 42.0082 50.5679 42.2895 48.9896 42.5473C47.2159 42.8364 45.5047 43.5006 43.7311 43.7428C43.1607 43.821 42.5825 43.8522 42.0043 43.8522C41.426 43.8522 40.8478 43.821 40.2775 43.7428C38.5038 43.4928 36.7926 42.8364 35.0189 42.5473C33.4328 42.2817 31.831 42.0082 30.237 42.0004C27.4554 41.9848 24.7597 43.0083 22.0328 43.5631C22.0328 44.5007 21.8687 45.7118 22.275 46.376C22.6969 47.0636 23.4079 47.6809 23.5877 48.6107C24.0252 50.8063 24.6425 52.955 25.4395 55.0178C25.8223 56.0179 26.549 56.7212 27.3616 57.1978C29.315 58.3542 31.6278 58.5261 33.7766 58.1667C36.8317 57.651 38.4881 54.9475 39.7539 51.8533C40.2306 50.5953 40.2775 49.1498 40.9025 48.0012C41.1369 47.5715 41.5589 47.5246 41.9964 47.548C42.434 47.5246 42.8637 47.5715 43.0903 48.0012C43.7154 49.1498 43.7623 50.6031 44.2389 51.8533C45.5047 54.9475 47.1612 57.6432 50.2163 58.1667C52.3572 58.5339 54.6779 58.362 56.6313 57.1978C57.4439 56.7212 58.1705 56.0179 58.5534 55.0178C59.3426 52.955 59.9677 50.8063 60.4052 48.6107C60.5849 47.6809 61.3038 47.0636 61.7179 46.376C62.132 45.7118 61.9679 44.5085 61.9679 43.5631ZM37.9568 52.369C36.441 56.0805 33.714 56.854 31.6981 56.854C30.9168 56.854 30.0964 56.7368 29.2603 56.5024C27.7679 56.0883 26.6584 54.8381 26.1349 53.0019C25.4317 50.5484 25.1426 48.5716 25.2207 46.7979C25.3301 44.5007 27.4007 44.0319 29.6979 43.7272C30.7683 43.5865 31.6278 43.5162 32.4014 43.5084H32.4092C33.4484 43.5084 34.2688 43.6022 35.0345 43.7897C37.2614 44.3445 38.5272 45.1102 39.0117 46.2041C39.5508 47.4308 39.2461 49.2201 37.9568 52.369ZM57.8658 53.0019C57.3423 54.8381 56.225 56.0805 54.7404 56.5024C53.9043 56.7368 53.0839 56.854 52.2947 56.854C50.2788 56.854 47.5519 56.0726 46.0361 52.369C44.7468 49.2201 44.4421 47.4386 44.989 46.2119C45.4735 45.118 46.7393 44.3523 48.9661 43.7975C49.7241 43.61 50.5523 43.5162 51.5915 43.5162H51.5993C52.3729 43.524 53.2324 43.5944 54.3028 43.735C56.6 44.0397 58.6706 44.5007 58.78 46.8057C58.8581 48.5716 58.569 50.5406 57.8658 53.0019Z" fill="#736862"/>
<defs>
<linearGradient id="paint0_linear" x1="9" y1="76.5" x2="84" y2="6.5" gradientUnits="userSpaceOnUse">
<stop stop-color="#B88F8F"/>
<stop offset="1" stop-color="#796F69" stop-opacity="0"/>
</linearGradient>
</defs>
</svg>
