<svg width="39" height="39" viewBox="0 0 39 39" fill="none" xmlns="http://www.w3.org/2000/svg">
<path d="M2 2H5.88889L6.66667 5.88889L2 2ZM9.77778 21.4444H29.2222L37 5.88889H6.66667L9.77778 21.4444ZM9.77778 21.4444L6.66667 5.88889L9.77778 21.4444ZM9.77778 21.4444L5.31917 25.9031C4.09417 27.1281 4.96139 29.2222 6.69389 29.2222H29.2222L9.77778 21.4444ZM29.2222 29.2222C28.1908 29.2222 27.2017 29.6319 26.4724 30.3613C25.7431 31.0906 25.3333 32.0797 25.3333 33.1111C25.3333 34.1425 25.7431 35.1317 26.4724 35.861C27.2017 36.5903 28.1908 37 29.2222 37C30.2536 37 31.2428 36.5903 31.9721 35.861C32.7014 35.1317 33.1111 34.1425 33.1111 33.1111C33.1111 32.0797 32.7014 31.0906 31.9721 30.3613C31.2428 29.6319 30.2536 29.2222 29.2222 29.2222ZM13.6667 33.1111C13.6667 34.1425 13.2569 35.1317 12.5276 35.861C11.7983 36.5903 10.8092 37 9.77778 37C8.74638 37 7.75723 36.5903 7.02792 35.861C6.29861 35.1317 5.88889 34.1425 5.88889 33.1111C5.88889 32.0797 6.29861 31.0906 7.02792 30.3613C7.75723 29.6319 8.74638 29.2222 9.77778 29.2222C10.8092 29.2222 11.7983 29.6319 12.5276 30.3613C13.2569 31.0906 13.6667 32.0797 13.6667 33.1111V33.1111Z" stroke="#736862" stroke-width="3" stroke-linecap="round" stroke-linejoin="round"/>
<circle cx="28" cy="20" r="8" fill="#B88F8F"/>
<path d="M30.33 21.79C30.45 21.79 30.5433 21.8233 30.61 21.89C30.6767 21.95 30.71 22.03 30.71 22.13C30.71 22.3567 30.5833 22.47 30.33 22.47H29.58V23.63C29.58 23.7633 29.54 23.8667 29.46 23.94C29.3867 24.0133 29.29 24.05 29.17 24.05C29.05 24.05 28.9533 24.0133 28.88 23.94C28.8067 23.8667 28.77 23.7633 28.77 23.63V22.47H25.81C25.69 22.47 25.5967 22.4367 25.53 22.37C25.4633 22.3033 25.43 22.22 25.43 22.12C25.43 22.0267 25.4667 21.9233 25.54 21.81L28.81 17.08C28.9033 16.96 29.0233 16.9 29.17 16.9C29.2833 16.9 29.38 16.9367 29.46 17.01C29.54 17.0833 29.58 17.1867 29.58 17.32V21.79H30.33ZM26.36 21.79H28.77V18.32L26.36 21.79Z" fill="#F5F5F7"/>
</svg>
