<svg width="61" height="61" viewBox="0 0 61 61" fill="none" xmlns="http://www.w3.org/2000/svg">
<path d="M3.04004 33.0013H6.08073V54.0018C6.08073 57.3108 8.80823 60.0019 12.1621 60.0019H48.6504C52.0043 60.0019 54.7318 57.3108 54.7318 54.0018V33.0013H57.7725C58.3738 33.0012 58.9615 32.8252 59.4614 32.4955C59.9614 32.1658 60.351 31.6973 60.5811 31.1492C60.8112 30.6011 60.8714 29.998 60.7541 29.4161C60.6368 28.8343 60.3473 28.2998 59.9222 27.8802L32.556 0.879622C32.2739 0.600779 31.9388 0.379561 31.5699 0.228625C31.201 0.0776899 30.8056 0 30.4063 0C30.0069 0 29.6115 0.0776899 29.2426 0.228625C28.8737 0.379561 28.5386 0.600779 28.2565 0.879622L0.890274 27.8802C0.465157 28.2998 0.175664 28.8343 0.0583918 29.4161C-0.0588802 29.998 0.00133471 30.6011 0.231424 31.1492C0.461513 31.6973 0.851145 32.1658 1.35106 32.4955C1.85098 32.8252 2.43874 33.0012 3.04004 33.0013ZM24.3249 54.0018V39.0014H36.4876V54.0018H24.3249ZM30.4063 7.24276L48.6504 25.2431V39.0014L48.6534 54.0018H42.569V39.0014C42.569 35.6924 39.8415 33.0013 36.4876 33.0013H24.3249C20.971 33.0013 18.2435 35.6924 18.2435 39.0014V54.0018H12.1621V25.2431L30.4063 7.24276Z" fill="#736862"/>
</svg>
