<svg width="60" height="60" viewBox="0 0 60 60" fill="none" xmlns="http://www.w3.org/2000/svg">
<path d="M24.4666 24.6835C22.2376 24.6835 20.0586 24.0223 18.2055 22.7835C16.3523 21.5448 14.9082 19.7842 14.056 17.7245C13.2037 15.6648 12.9816 13.3986 13.4177 11.2127C13.8537 9.02669 14.9284 7.01919 16.5058 5.44419C18.0831 3.86918 20.0922 2.79745 22.2788 2.36461C24.4654 1.93177 26.7313 2.15726 28.7897 3.01257C30.8482 3.86787 32.6066 5.31454 33.8426 7.16953C35.0786 9.02451 35.7366 11.2044 35.7333 13.4335C35.7245 16.4173 34.5341 19.2762 32.4226 21.3846C30.3111 23.4929 27.4505 24.6791 24.4666 24.6835ZM24.4666 5.50015C22.8975 5.50015 21.3637 5.96543 20.0591 6.83716C18.7545 7.70889 17.7376 8.9479 17.1372 10.3975C16.5367 11.8472 16.3796 13.4423 16.6857 14.9812C16.9918 16.5201 17.7474 17.9337 18.8569 19.0432C19.9664 20.1527 21.38 20.9083 22.9189 21.2144C24.4578 21.5205 26.0529 21.3634 27.5026 20.7629C28.9522 20.1625 30.1912 19.1456 31.0629 17.841C31.9347 16.5364 32.3999 15.0026 32.3999 13.4335C32.3999 11.3294 31.5641 9.31156 30.0763 7.82377C28.5885 6.33598 26.5707 5.50015 24.4666 5.50015Z" fill="#736862"/>
<path d="M27.3667 52.8001C27.0025 52.4357 26.7215 51.9968 26.5431 51.5134C26.3647 51.03 26.2932 50.5138 26.3334 50.0001H6.66671V40.3668C9.02988 37.8452 11.8962 35.8479 15.0802 34.5043C18.2642 33.1606 21.6948 32.5006 25.15 32.5668H26.35C26.2735 32.008 26.327 31.4391 26.5062 30.9043C26.6854 30.3695 26.9856 29.8833 27.3834 29.4834L27.5834 29.3001C26.8 29.3001 25.9167 29.2001 25.15 29.2001C21.084 29.1036 17.0474 29.9118 13.332 31.5663C9.61658 33.2208 6.31525 35.6802 3.66671 38.7668C3.45034 39.0553 3.33337 39.4062 3.33337 39.7668V50.0001C3.33337 50.8842 3.68456 51.732 4.30968 52.3571C4.93481 52.9823 5.78265 53.3334 6.66671 53.3334H27.8334L27.3667 52.8001Z" fill="#736862"/>
<path d="M44.7833 27.1503C44.8658 27.1332 44.9509 27.1332 45.0333 27.1503C44.9507 27.1353 44.866 27.1353 44.7833 27.1503Z" fill="#736862"/>
<path d="M56.1333 38.8667L52.8 37.85C52.5617 37.0347 52.2377 36.247 51.8333 35.5L53.5 32.4C53.5542 32.276 53.5673 32.1379 53.5373 32.006C53.5073 31.874 53.4358 31.7551 53.3333 31.6667L50.9166 29.25C50.8252 29.1511 50.7032 29.0858 50.5702 29.0646C50.4372 29.0435 50.3009 29.0677 50.1833 29.1334L47.1166 30.8C46.3615 30.3755 45.5624 30.0346 44.7333 29.7834L43.7166 26.45C43.6735 26.3273 43.5917 26.222 43.4834 26.1498C43.3752 26.0777 43.2465 26.0427 43.1167 26.05H39.7C39.5687 26.0485 39.4406 26.0901 39.3353 26.1683C39.2299 26.2466 39.1531 26.3573 39.1166 26.4834L38.1 29.8167C37.2652 30.0596 36.4602 30.395 35.7 30.8167L32.6667 29.15C32.5516 29.0856 32.4181 29.0621 32.288 29.0833C32.1578 29.1045 32.0387 29.1691 31.95 29.2667L29.4833 31.6667C29.3919 31.763 29.333 31.8856 29.315 32.0172C29.2971 32.1488 29.321 32.2828 29.3833 32.4L31.05 35.4334C30.6092 36.1846 30.2568 36.9844 30 37.8167L26.6667 38.8167C26.5406 38.8532 26.4299 38.9299 26.3516 39.0353C26.2734 39.1407 26.2318 39.2688 26.2333 39.4V42.8167C26.2432 42.9371 26.2901 43.0514 26.3678 43.144C26.4454 43.2365 26.5498 43.3027 26.6667 43.3334L30 44.35C30.2463 45.1676 30.5817 45.9557 31 46.7L29.3333 49.8834C29.2697 49.9974 29.2451 50.1291 29.2631 50.2585C29.2812 50.3878 29.3409 50.5077 29.4333 50.6L31.85 53.0167C31.9444 53.1109 32.0661 53.1728 32.1978 53.1938C32.3294 53.2147 32.4644 53.1936 32.5833 53.1334L35.7 51.4667C36.4417 51.8656 37.2239 52.1841 38.0333 52.4167L39.0333 55.75C39.0743 55.8734 39.1523 55.9812 39.2567 56.0587C39.361 56.1362 39.4867 56.1797 39.6167 56.1834H43.0333C43.1639 56.1822 43.2908 56.1396 43.3956 56.0618C43.5004 55.9839 43.5778 55.8747 43.6166 55.75L44.6333 52.3334C45.432 52.1006 46.2032 51.7821 46.9333 51.3834L50.0833 53.05C50.1991 53.1116 50.3319 53.1335 50.4613 53.1124C50.5907 53.0913 50.7097 53.0285 50.8 52.9334L53.3333 50.6667C53.4014 50.5689 53.4379 50.4526 53.4379 50.3334C53.4379 50.2142 53.4014 50.0978 53.3333 50L51.6666 46.8667C52.0713 46.1315 52.3954 45.3548 52.6333 44.55L55.9667 43.5334C56.0927 43.4969 56.2034 43.4201 56.2817 43.3148C56.3599 43.2094 56.4015 43.0813 56.4 42.95V39.45C56.4153 39.3375 56.3983 39.223 56.3511 39.1197C56.3039 39.0165 56.2284 38.9287 56.1333 38.8667ZM41.4166 46.6667C40.3143 46.67 39.2357 46.3459 38.3177 45.7355C37.3997 45.1251 36.6837 44.2559 36.2603 43.238C35.8369 42.2202 35.7252 41.0995 35.9395 40.0181C36.1538 38.9368 36.6843 37.9433 37.4638 37.1638C38.2433 36.3843 39.2367 35.8538 40.3181 35.6395C41.3995 35.4253 42.5201 35.5369 43.538 35.9603C44.5558 36.3837 45.425 37.0998 46.0354 38.0178C46.6458 38.9358 46.9699 40.0143 46.9667 41.1167C46.9623 42.5873 46.3761 43.9964 45.3362 45.0363C44.2964 46.0762 42.8872 46.6623 41.4166 46.6667Z" fill="#736862"/>
</svg>
