<svg width="30" height="29" viewBox="0 0 30 29" fill="none" xmlns="http://www.w3.org/2000/svg">
<path d="M29.5 14.0625C29.5 21.523 23.039 27.625 15 27.625C6.96098 27.625 0.5 21.523 0.5 14.0625C0.5 6.60205 6.96098 0.5 15 0.5C23.039 0.5 29.5 6.60205 29.5 14.0625Z" stroke="url(#paint0_linear)" stroke-opacity="0.92"/>
<path d="M9.25096 8.26168C9.4117 8.10099 9.62968 8.01072 9.85696 8.01072C10.0842 8.01072 10.3022 8.10099 10.463 8.26168L14.9998 12.7985L19.5367 8.26168C19.6157 8.17981 19.7103 8.11451 19.8149 8.06959C19.9195 8.02467 20.0319 8.00102 20.1458 8.00003C20.2596 7.99904 20.3724 8.02073 20.4778 8.06383C20.5831 8.10693 20.6788 8.17057 20.7593 8.25105C20.8398 8.33153 20.9034 8.42723 20.9465 8.53257C20.9896 8.63791 21.0113 8.75078 21.0103 8.86459C21.0093 8.9784 20.9857 9.09088 20.9408 9.19545C20.8958 9.30003 20.8305 9.39461 20.7487 9.47368L16.2118 14.0105L20.7487 18.5474C20.9048 18.709 20.9912 18.9256 20.9893 19.1503C20.9873 19.375 20.8972 19.59 20.7382 19.7489C20.5793 19.9079 20.3643 19.998 20.1396 20C19.9149 20.0019 19.6983 19.9155 19.5367 19.7594L14.9998 15.2225L10.463 19.7594C10.3013 19.9155 10.0848 20.0019 9.86004 20C9.6353 19.998 9.42032 19.9079 9.2614 19.7489C9.10248 19.59 9.01234 19.375 9.01038 19.1503C9.00843 18.9256 9.09482 18.709 9.25096 18.5474L13.7878 14.0105L9.25096 9.47368C9.09027 9.31294 9 9.09496 9 8.86768C9 8.64039 9.09027 8.42241 9.25096 8.26168Z" fill="#736862"/>
<defs>
<linearGradient id="paint0_linear" x1="3.21429" y1="25.6138" x2="28.3854" y2="0.554564" gradientUnits="userSpaceOnUse">
<stop stop-color="#B88F8F"/>
<stop offset="1" stop-color="#796F69" stop-opacity="0"/>
</linearGradient>
</defs>
</svg>
